<mxfile host="app.diagrams.net" modified="2021-02-14T11:39:05.890Z" agent="5.0 (Windows NT 10.0; Win64; x64) AppleWebKit/537.36 (KHTML, like Gecko) Chrome/88.0.4324.150 Safari/537.36" etag="7ieySVWJ4qPbC43Ovdqm" version="14.2.9" type="github">
  <diagram id="ED207h0K6K_MOjYJORUN" name="Page-1">
    <mxGraphModel dx="1422" dy="794" grid="1" gridSize="10" guides="1" tooltips="1" connect="1" arrows="1" fold="1" page="1" pageScale="1" pageWidth="827" pageHeight="1169" math="0" shadow="0">
      <root>
        <mxCell id="0" />
        <mxCell id="1" parent="0" />
        <mxCell id="7y79K5_HygVIXR41Pf-r-31" style="edgeStyle=orthogonalEdgeStyle;rounded=0;orthogonalLoop=1;jettySize=auto;html=1;entryX=0.5;entryY=1;entryDx=0;entryDy=0;" edge="1" parent="1" source="wMshQXG43s-jGGAkCz8L-63" target="qndtqw6j1YCROG0_cwLF-72">
          <mxGeometry relative="1" as="geometry" />
        </mxCell>
        <mxCell id="wMshQXG43s-jGGAkCz8L-63" value="" style="outlineConnect=0;fontColor=#232F3E;gradientColor=none;fillColor=#5A30B5;strokeColor=none;dashed=0;verticalLabelPosition=bottom;verticalAlign=top;align=center;html=1;fontSize=12;fontStyle=0;aspect=fixed;pointerEvents=1;shape=mxgraph.aws4.vpn_connection;" parent="1" vertex="1">
          <mxGeometry x="248.11000000000007" y="940" width="35.89" height="40" as="geometry" />
        </mxCell>
        <mxCell id="qndtqw6j1YCROG0_cwLF-44" value="&lt;font color=&quot;#000000&quot;&gt;VPC&lt;/font&gt;" style="points=[[0,0],[0.25,0],[0.5,0],[0.75,0],[1,0],[1,0.25],[1,0.5],[1,0.75],[1,1],[0.75,1],[0.5,1],[0.25,1],[0,1],[0,0.75],[0,0.5],[0,0.25]];outlineConnect=0;gradientColor=none;html=1;whiteSpace=wrap;fontSize=12;fontStyle=0;shape=mxgraph.aws4.group;grIcon=mxgraph.aws4.group_vpc;strokeColor=#248814;fillColor=none;verticalAlign=top;align=left;spacingLeft=30;fontColor=#AAB7B8;dashed=0;" parent="1" vertex="1">
          <mxGeometry x="606" y="230" width="340" height="550" as="geometry" />
        </mxCell>
        <mxCell id="qndtqw6j1YCROG0_cwLF-45" value="Private subnet" style="points=[[0,0],[0.25,0],[0.5,0],[0.75,0],[1,0],[1,0.25],[1,0.5],[1,0.75],[1,1],[0.75,1],[0.5,1],[0.25,1],[0,1],[0,0.75],[0,0.5],[0,0.25]];outlineConnect=0;gradientColor=none;html=1;whiteSpace=wrap;fontSize=12;fontStyle=0;shape=mxgraph.aws4.group;grIcon=mxgraph.aws4.group_security_group;grStroke=0;strokeColor=#147EBA;fillColor=#E6F2F8;verticalAlign=top;align=left;spacingLeft=30;fontColor=#147EBA;dashed=0;" parent="1" vertex="1">
          <mxGeometry x="615" y="420" width="321" height="350" as="geometry" />
        </mxCell>
        <mxCell id="qndtqw6j1YCROG0_cwLF-46" value="Private A Zone " style="fillColor=none;strokeColor=#147EBA;dashed=1;verticalAlign=top;fontStyle=0;fontColor=#147EBA;direction=south;" parent="1" vertex="1">
          <mxGeometry x="616" y="464.5" width="154.25" height="95.5" as="geometry" />
        </mxCell>
        <mxCell id="qndtqw6j1YCROG0_cwLF-47" value="" style="outlineConnect=0;fontColor=#232F3E;gradientColor=none;fillColor=#D86613;strokeColor=none;dashed=0;verticalLabelPosition=bottom;verticalAlign=top;align=center;html=1;fontSize=12;fontStyle=0;aspect=fixed;pointerEvents=1;shape=mxgraph.aws4.instances;" parent="1" vertex="1">
          <mxGeometry x="676" y="491" width="48" height="48" as="geometry" />
        </mxCell>
        <mxCell id="qndtqw6j1YCROG0_cwLF-48" value="Private DB A Zone " style="fillColor=none;strokeColor=#147EBA;dashed=1;verticalAlign=top;fontStyle=0;fontColor=#147EBA;direction=south;" parent="1" vertex="1">
          <mxGeometry x="615" y="670" width="155" height="90" as="geometry" />
        </mxCell>
        <mxCell id="qndtqw6j1YCROG0_cwLF-49" value="Private C Zone " style="fillColor=none;strokeColor=#147EBA;dashed=1;verticalAlign=top;fontStyle=0;fontColor=#147EBA;direction=south;" parent="1" vertex="1">
          <mxGeometry x="780.3800000000001" y="464.5" width="154.25" height="95.5" as="geometry" />
        </mxCell>
        <mxCell id="qndtqw6j1YCROG0_cwLF-50" value="Public subnet" style="points=[[0,0],[0.25,0],[0.5,0],[0.75,0],[1,0],[1,0.25],[1,0.5],[1,0.75],[1,1],[0.75,1],[0.5,1],[0.25,1],[0,1],[0,0.75],[0,0.5],[0,0.25]];outlineConnect=0;gradientColor=none;html=1;whiteSpace=wrap;fontSize=12;fontStyle=0;shape=mxgraph.aws4.group;grIcon=mxgraph.aws4.group_security_group;grStroke=0;strokeColor=#248814;fillColor=#E9F3E6;verticalAlign=top;align=left;spacingLeft=30;fontColor=#248814;dashed=0;" parent="1" vertex="1">
          <mxGeometry x="616" y="270" width="320" height="142.5" as="geometry" />
        </mxCell>
        <mxCell id="qndtqw6j1YCROG0_cwLF-51" value="Public A Zone " style="fillColor=none;strokeColor=#147EBA;dashed=1;verticalAlign=top;fontStyle=0;fontColor=#147EBA;direction=south;" parent="1" vertex="1">
          <mxGeometry x="616" y="320" width="154.25" height="80" as="geometry" />
        </mxCell>
        <mxCell id="qndtqw6j1YCROG0_cwLF-52" value="Public C Zone " style="fillColor=none;strokeColor=#147EBA;dashed=1;verticalAlign=top;fontStyle=0;fontColor=#147EBA;direction=south;" parent="1" vertex="1">
          <mxGeometry x="785.5" y="320" width="150" height="80" as="geometry" />
        </mxCell>
        <mxCell id="qndtqw6j1YCROG0_cwLF-53" value="50.51.0.0/16" style="text;html=1;strokeColor=none;fillColor=none;align=center;verticalAlign=middle;whiteSpace=wrap;rounded=0;" parent="1" vertex="1">
          <mxGeometry x="635.25" y="233" width="135" height="20" as="geometry" />
        </mxCell>
        <mxCell id="qndtqw6j1YCROG0_cwLF-54" style="edgeStyle=orthogonalEdgeStyle;rounded=0;orthogonalLoop=1;jettySize=auto;html=1;" parent="1" source="qndtqw6j1YCROG0_cwLF-56" target="qndtqw6j1YCROG0_cwLF-47" edge="1">
          <mxGeometry relative="1" as="geometry">
            <mxPoint x="681.0999999999999" y="488.3800000000001" as="targetPoint" />
          </mxGeometry>
        </mxCell>
        <mxCell id="qndtqw6j1YCROG0_cwLF-55" style="edgeStyle=orthogonalEdgeStyle;rounded=0;orthogonalLoop=1;jettySize=auto;html=1;" parent="1" source="qndtqw6j1YCROG0_cwLF-56" target="qndtqw6j1YCROG0_cwLF-69" edge="1">
          <mxGeometry relative="1" as="geometry">
            <mxPoint x="855.5" y="495" as="targetPoint" />
          </mxGeometry>
        </mxCell>
        <mxCell id="qndtqw6j1YCROG0_cwLF-56" value="" style="outlineConnect=0;fontColor=#232F3E;gradientColor=none;fillColor=#5A30B5;strokeColor=none;dashed=0;verticalLabelPosition=bottom;verticalAlign=top;align=center;html=1;fontSize=12;fontStyle=0;aspect=fixed;pointerEvents=1;shape=mxgraph.aws4.application_load_balancer;" parent="1" vertex="1">
          <mxGeometry x="760" y="328" width="30" height="30" as="geometry" />
        </mxCell>
        <mxCell id="qndtqw6j1YCROG0_cwLF-57" style="edgeStyle=orthogonalEdgeStyle;rounded=0;orthogonalLoop=1;jettySize=auto;html=1;" parent="1" source="qndtqw6j1YCROG0_cwLF-58" target="qndtqw6j1YCROG0_cwLF-56" edge="1">
          <mxGeometry relative="1" as="geometry" />
        </mxCell>
        <mxCell id="qndtqw6j1YCROG0_cwLF-58" value="" style="points=[[0,0,0],[0.25,0,0],[0.5,0,0],[0.75,0,0],[1,0,0],[0,1,0],[0.25,1,0],[0.5,1,0],[0.75,1,0],[1,1,0],[0,0.25,0],[0,0.5,0],[0,0.75,0],[1,0.25,0],[1,0.5,0],[1,0.75,0]];outlineConnect=0;fontColor=#232F3E;gradientColor=#945DF2;gradientDirection=north;fillColor=#5A30B5;strokeColor=#ffffff;dashed=0;verticalLabelPosition=bottom;verticalAlign=top;align=center;html=1;fontSize=12;fontStyle=0;aspect=fixed;shape=mxgraph.aws4.resourceIcon;resIcon=mxgraph.aws4.route_53;" parent="1" vertex="1">
          <mxGeometry x="760" y="130" width="30" height="30" as="geometry" />
        </mxCell>
        <mxCell id="qndtqw6j1YCROG0_cwLF-59" value="" style="points=[[0,0,0],[0.25,0,0],[0.5,0,0],[0.75,0,0],[1,0,0],[0,1,0],[0.25,1,0],[0.5,1,0],[0.75,1,0],[1,1,0],[0,0.25,0],[0,0.5,0],[0,0.75,0],[1,0.25,0],[1,0.5,0],[1,0.75,0]];outlineConnect=0;fontColor=#232F3E;gradientColor=#4D72F3;gradientDirection=north;fillColor=#3334B9;strokeColor=#ffffff;dashed=0;verticalLabelPosition=bottom;verticalAlign=top;align=center;html=1;fontSize=12;fontStyle=0;aspect=fixed;shape=mxgraph.aws4.resourceIcon;resIcon=mxgraph.aws4.rds;" parent="1" vertex="1">
          <mxGeometry x="672.1300000000001" y="695" width="40" height="40" as="geometry" />
        </mxCell>
        <mxCell id="qndtqw6j1YCROG0_cwLF-60" value="wlsdn1.wjcloud.co.kr" style="text;html=1;strokeColor=none;fillColor=none;align=center;verticalAlign=middle;whiteSpace=wrap;rounded=0;" parent="1" vertex="1">
          <mxGeometry x="798.63" y="135" width="135" height="20" as="geometry" />
        </mxCell>
        <mxCell id="qndtqw6j1YCROG0_cwLF-61" value="50.51.10.0/24" style="text;html=1;strokeColor=none;fillColor=none;align=center;verticalAlign=middle;whiteSpace=wrap;rounded=0;" parent="1" vertex="1">
          <mxGeometry x="589" y="300" width="135" height="20" as="geometry" />
        </mxCell>
        <mxCell id="qndtqw6j1YCROG0_cwLF-62" value="50.51.11.0/24" style="text;html=1;strokeColor=none;fillColor=none;align=center;verticalAlign=middle;whiteSpace=wrap;rounded=0;" parent="1" vertex="1">
          <mxGeometry x="760" y="300" width="135" height="20" as="geometry" />
        </mxCell>
        <mxCell id="qndtqw6j1YCROG0_cwLF-63" value="50.51.40.0/24" style="text;html=1;strokeColor=none;fillColor=none;align=center;verticalAlign=middle;whiteSpace=wrap;rounded=0;" parent="1" vertex="1">
          <mxGeometry x="606" y="445" width="109" height="20" as="geometry" />
        </mxCell>
        <mxCell id="qndtqw6j1YCROG0_cwLF-64" value="50.51.41.0/24" style="text;html=1;strokeColor=none;fillColor=none;align=center;verticalAlign=middle;whiteSpace=wrap;rounded=0;" parent="1" vertex="1">
          <mxGeometry x="755" y="446" width="135" height="20" as="geometry" />
        </mxCell>
        <mxCell id="qndtqw6j1YCROG0_cwLF-65" value="" style="outlineConnect=0;fontColor=#232F3E;gradientColor=none;fillColor=#5A30B5;strokeColor=none;dashed=0;verticalLabelPosition=bottom;verticalAlign=top;align=center;html=1;fontSize=12;fontStyle=0;aspect=fixed;pointerEvents=1;shape=mxgraph.aws4.internet_gateway;" parent="1" vertex="1">
          <mxGeometry x="760" y="220" width="30" height="30" as="geometry" />
        </mxCell>
        <mxCell id="qndtqw6j1YCROG0_cwLF-66" value="" style="outlineConnect=0;fontColor=#232F3E;gradientColor=none;fillColor=#5A30B5;strokeColor=none;dashed=0;verticalLabelPosition=bottom;verticalAlign=top;align=center;html=1;fontSize=12;fontStyle=0;aspect=fixed;pointerEvents=1;shape=mxgraph.aws4.nat_gateway;" parent="1" vertex="1">
          <mxGeometry x="635.25" y="362" width="30" height="30" as="geometry" />
        </mxCell>
        <mxCell id="qndtqw6j1YCROG0_cwLF-67" style="edgeStyle=orthogonalEdgeStyle;rounded=0;orthogonalLoop=1;jettySize=auto;html=1;exitX=1;exitY=0.5;exitDx=0;exitDy=0;" parent="1" source="qndtqw6j1YCROG0_cwLF-52" target="qndtqw6j1YCROG0_cwLF-52" edge="1">
          <mxGeometry relative="1" as="geometry" />
        </mxCell>
        <mxCell id="qndtqw6j1YCROG0_cwLF-68" value="" style="outlineConnect=0;fontColor=#232F3E;gradientColor=none;fillColor=#5A30B5;strokeColor=none;dashed=0;verticalLabelPosition=bottom;verticalAlign=top;align=center;html=1;fontSize=12;fontStyle=0;aspect=fixed;pointerEvents=1;shape=mxgraph.aws4.nat_gateway;" parent="1" vertex="1">
          <mxGeometry x="806" y="362" width="30" height="30" as="geometry" />
        </mxCell>
        <mxCell id="qndtqw6j1YCROG0_cwLF-69" value="" style="outlineConnect=0;fontColor=#232F3E;gradientColor=none;fillColor=#D86613;strokeColor=none;dashed=0;verticalLabelPosition=bottom;verticalAlign=top;align=center;html=1;fontSize=12;fontStyle=0;aspect=fixed;pointerEvents=1;shape=mxgraph.aws4.instances;" parent="1" vertex="1">
          <mxGeometry x="840" y="491" width="48" height="48" as="geometry" />
        </mxCell>
        <mxCell id="qndtqw6j1YCROG0_cwLF-70" value="Wordpress Server" style="text;html=1;strokeColor=none;fillColor=none;align=center;verticalAlign=middle;whiteSpace=wrap;rounded=0;" parent="1" vertex="1">
          <mxGeometry x="626" y="540" width="135" height="20" as="geometry" />
        </mxCell>
        <mxCell id="qndtqw6j1YCROG0_cwLF-71" value="Wordpress&amp;nbsp;Server" style="text;html=1;strokeColor=none;fillColor=none;align=center;verticalAlign=middle;whiteSpace=wrap;rounded=0;" parent="1" vertex="1">
          <mxGeometry x="793" y="540" width="135" height="20" as="geometry" />
        </mxCell>
        <mxCell id="qndtqw6j1YCROG0_cwLF-72" value="&lt;font color=&quot;#000000&quot;&gt;VPC&lt;/font&gt;" style="points=[[0,0],[0.25,0],[0.5,0],[0.75,0],[1,0],[1,0.25],[1,0.5],[1,0.75],[1,1],[0.75,1],[0.5,1],[0.25,1],[0,1],[0,0.75],[0,0.5],[0,0.25]];outlineConnect=0;gradientColor=none;html=1;whiteSpace=wrap;fontSize=12;fontStyle=0;shape=mxgraph.aws4.group;grIcon=mxgraph.aws4.group_vpc;strokeColor=#248814;fillColor=none;verticalAlign=top;align=left;spacingLeft=30;fontColor=#AAB7B8;dashed=0;" parent="1" vertex="1">
          <mxGeometry x="97" y="230" width="340" height="550" as="geometry" />
        </mxCell>
        <mxCell id="qndtqw6j1YCROG0_cwLF-73" value="Private subnet" style="points=[[0,0],[0.25,0],[0.5,0],[0.75,0],[1,0],[1,0.25],[1,0.5],[1,0.75],[1,1],[0.75,1],[0.5,1],[0.25,1],[0,1],[0,0.75],[0,0.5],[0,0.25]];outlineConnect=0;gradientColor=none;html=1;whiteSpace=wrap;fontSize=12;fontStyle=0;shape=mxgraph.aws4.group;grIcon=mxgraph.aws4.group_security_group;grStroke=0;strokeColor=#147EBA;fillColor=#E6F2F8;verticalAlign=top;align=left;spacingLeft=30;fontColor=#147EBA;dashed=0;" parent="1" vertex="1">
          <mxGeometry x="106" y="420" width="321" height="350" as="geometry" />
        </mxCell>
        <mxCell id="qndtqw6j1YCROG0_cwLF-74" value="Private A Zone " style="fillColor=none;strokeColor=#147EBA;dashed=1;verticalAlign=top;fontStyle=0;fontColor=#147EBA;direction=south;" parent="1" vertex="1">
          <mxGeometry x="107" y="464.5" width="154.25" height="95.5" as="geometry" />
        </mxCell>
        <mxCell id="qndtqw6j1YCROG0_cwLF-75" value="" style="outlineConnect=0;fontColor=#232F3E;gradientColor=none;fillColor=#D86613;strokeColor=none;dashed=0;verticalLabelPosition=bottom;verticalAlign=top;align=center;html=1;fontSize=12;fontStyle=0;aspect=fixed;pointerEvents=1;shape=mxgraph.aws4.instances;" parent="1" vertex="1">
          <mxGeometry x="167" y="491" width="48" height="48" as="geometry" />
        </mxCell>
        <mxCell id="qndtqw6j1YCROG0_cwLF-76" value="Private DB A Zone " style="fillColor=none;strokeColor=#147EBA;dashed=1;verticalAlign=top;fontStyle=0;fontColor=#147EBA;direction=south;" parent="1" vertex="1">
          <mxGeometry x="106.25" y="670" width="155" height="90" as="geometry" />
        </mxCell>
        <mxCell id="qndtqw6j1YCROG0_cwLF-77" value="Private C Zone " style="fillColor=none;strokeColor=#147EBA;dashed=1;verticalAlign=top;fontStyle=0;fontColor=#147EBA;direction=south;" parent="1" vertex="1">
          <mxGeometry x="271.3800000000001" y="464.5" width="154.25" height="95.5" as="geometry" />
        </mxCell>
        <mxCell id="qndtqw6j1YCROG0_cwLF-78" value="Public subnet" style="points=[[0,0],[0.25,0],[0.5,0],[0.75,0],[1,0],[1,0.25],[1,0.5],[1,0.75],[1,1],[0.75,1],[0.5,1],[0.25,1],[0,1],[0,0.75],[0,0.5],[0,0.25]];outlineConnect=0;gradientColor=none;html=1;whiteSpace=wrap;fontSize=12;fontStyle=0;shape=mxgraph.aws4.group;grIcon=mxgraph.aws4.group_security_group;grStroke=0;strokeColor=#248814;fillColor=#E9F3E6;verticalAlign=top;align=left;spacingLeft=30;fontColor=#248814;dashed=0;" parent="1" vertex="1">
          <mxGeometry x="107" y="270" width="320" height="142.5" as="geometry" />
        </mxCell>
        <mxCell id="qndtqw6j1YCROG0_cwLF-79" value="Public A Zone " style="fillColor=none;strokeColor=#147EBA;dashed=1;verticalAlign=top;fontStyle=0;fontColor=#147EBA;direction=south;" parent="1" vertex="1">
          <mxGeometry x="107" y="320" width="154.25" height="80" as="geometry" />
        </mxCell>
        <mxCell id="qndtqw6j1YCROG0_cwLF-80" value="Public C Zone " style="fillColor=none;strokeColor=#147EBA;dashed=1;verticalAlign=top;fontStyle=0;fontColor=#147EBA;direction=south;" parent="1" vertex="1">
          <mxGeometry x="276.5" y="320" width="150" height="80" as="geometry" />
        </mxCell>
        <mxCell id="qndtqw6j1YCROG0_cwLF-81" value="50.50.0.0/16" style="text;html=1;strokeColor=none;fillColor=none;align=center;verticalAlign=middle;whiteSpace=wrap;rounded=0;" parent="1" vertex="1">
          <mxGeometry x="126.25" y="233" width="135" height="20" as="geometry" />
        </mxCell>
        <mxCell id="qndtqw6j1YCROG0_cwLF-82" style="edgeStyle=orthogonalEdgeStyle;rounded=0;orthogonalLoop=1;jettySize=auto;html=1;" parent="1" source="qndtqw6j1YCROG0_cwLF-84" target="qndtqw6j1YCROG0_cwLF-75" edge="1">
          <mxGeometry relative="1" as="geometry">
            <mxPoint x="172.0999999999999" y="488.3800000000001" as="targetPoint" />
          </mxGeometry>
        </mxCell>
        <mxCell id="qndtqw6j1YCROG0_cwLF-83" style="edgeStyle=orthogonalEdgeStyle;rounded=0;orthogonalLoop=1;jettySize=auto;html=1;" parent="1" source="qndtqw6j1YCROG0_cwLF-84" target="qndtqw6j1YCROG0_cwLF-97" edge="1">
          <mxGeometry relative="1" as="geometry">
            <mxPoint x="346.5" y="495" as="targetPoint" />
          </mxGeometry>
        </mxCell>
        <mxCell id="qndtqw6j1YCROG0_cwLF-84" value="" style="outlineConnect=0;fontColor=#232F3E;gradientColor=none;fillColor=#5A30B5;strokeColor=none;dashed=0;verticalLabelPosition=bottom;verticalAlign=top;align=center;html=1;fontSize=12;fontStyle=0;aspect=fixed;pointerEvents=1;shape=mxgraph.aws4.application_load_balancer;" parent="1" vertex="1">
          <mxGeometry x="251" y="328" width="30" height="30" as="geometry" />
        </mxCell>
        <mxCell id="qndtqw6j1YCROG0_cwLF-85" style="edgeStyle=orthogonalEdgeStyle;rounded=0;orthogonalLoop=1;jettySize=auto;html=1;" parent="1" source="qndtqw6j1YCROG0_cwLF-86" target="qndtqw6j1YCROG0_cwLF-84" edge="1">
          <mxGeometry relative="1" as="geometry" />
        </mxCell>
        <mxCell id="qndtqw6j1YCROG0_cwLF-86" value="" style="points=[[0,0,0],[0.25,0,0],[0.5,0,0],[0.75,0,0],[1,0,0],[0,1,0],[0.25,1,0],[0.5,1,0],[0.75,1,0],[1,1,0],[0,0.25,0],[0,0.5,0],[0,0.75,0],[1,0.25,0],[1,0.5,0],[1,0.75,0]];outlineConnect=0;fontColor=#232F3E;gradientColor=#945DF2;gradientDirection=north;fillColor=#5A30B5;strokeColor=#ffffff;dashed=0;verticalLabelPosition=bottom;verticalAlign=top;align=center;html=1;fontSize=12;fontStyle=0;aspect=fixed;shape=mxgraph.aws4.resourceIcon;resIcon=mxgraph.aws4.route_53;" parent="1" vertex="1">
          <mxGeometry x="251" y="130" width="30" height="30" as="geometry" />
        </mxCell>
        <mxCell id="qndtqw6j1YCROG0_cwLF-87" value="" style="points=[[0,0,0],[0.25,0,0],[0.5,0,0],[0.75,0,0],[1,0,0],[0,1,0],[0.25,1,0],[0.5,1,0],[0.75,1,0],[1,1,0],[0,0.25,0],[0,0.5,0],[0,0.75,0],[1,0.25,0],[1,0.5,0],[1,0.75,0]];outlineConnect=0;fontColor=#232F3E;gradientColor=#4D72F3;gradientDirection=north;fillColor=#3334B9;strokeColor=#ffffff;dashed=0;verticalLabelPosition=bottom;verticalAlign=top;align=center;html=1;fontSize=12;fontStyle=0;aspect=fixed;shape=mxgraph.aws4.resourceIcon;resIcon=mxgraph.aws4.rds;" parent="1" vertex="1">
          <mxGeometry x="163.38" y="695" width="40" height="40" as="geometry" />
        </mxCell>
        <mxCell id="qndtqw6j1YCROG0_cwLF-88" value="wlsdn.wjcloud.co.kr" style="text;html=1;strokeColor=none;fillColor=none;align=center;verticalAlign=middle;whiteSpace=wrap;rounded=0;" parent="1" vertex="1">
          <mxGeometry x="281" y="135" width="135" height="20" as="geometry" />
        </mxCell>
        <mxCell id="qndtqw6j1YCROG0_cwLF-89" value="50.50.10.0/24" style="text;html=1;strokeColor=none;fillColor=none;align=center;verticalAlign=middle;whiteSpace=wrap;rounded=0;" parent="1" vertex="1">
          <mxGeometry x="80" y="300" width="135" height="20" as="geometry" />
        </mxCell>
        <mxCell id="qndtqw6j1YCROG0_cwLF-90" value="50.50.11.0/24" style="text;html=1;strokeColor=none;fillColor=none;align=center;verticalAlign=middle;whiteSpace=wrap;rounded=0;" parent="1" vertex="1">
          <mxGeometry x="251" y="300" width="135" height="20" as="geometry" />
        </mxCell>
        <mxCell id="qndtqw6j1YCROG0_cwLF-91" value="50.50.40.0/24" style="text;html=1;strokeColor=none;fillColor=none;align=center;verticalAlign=middle;whiteSpace=wrap;rounded=0;" parent="1" vertex="1">
          <mxGeometry x="84" y="444.5" width="135" height="20" as="geometry" />
        </mxCell>
        <mxCell id="qndtqw6j1YCROG0_cwLF-92" value="50.50.41.0/24" style="text;html=1;strokeColor=none;fillColor=none;align=center;verticalAlign=middle;whiteSpace=wrap;rounded=0;" parent="1" vertex="1">
          <mxGeometry x="246" y="446" width="135" height="20" as="geometry" />
        </mxCell>
        <mxCell id="qndtqw6j1YCROG0_cwLF-93" value="" style="outlineConnect=0;fontColor=#232F3E;gradientColor=none;fillColor=#5A30B5;strokeColor=none;dashed=0;verticalLabelPosition=bottom;verticalAlign=top;align=center;html=1;fontSize=12;fontStyle=0;aspect=fixed;pointerEvents=1;shape=mxgraph.aws4.internet_gateway;" parent="1" vertex="1">
          <mxGeometry x="251" y="220" width="30" height="30" as="geometry" />
        </mxCell>
        <mxCell id="qndtqw6j1YCROG0_cwLF-94" value="" style="outlineConnect=0;fontColor=#232F3E;gradientColor=none;fillColor=#5A30B5;strokeColor=none;dashed=0;verticalLabelPosition=bottom;verticalAlign=top;align=center;html=1;fontSize=12;fontStyle=0;aspect=fixed;pointerEvents=1;shape=mxgraph.aws4.nat_gateway;" parent="1" vertex="1">
          <mxGeometry x="126.25" y="362" width="30" height="30" as="geometry" />
        </mxCell>
        <mxCell id="qndtqw6j1YCROG0_cwLF-95" style="edgeStyle=orthogonalEdgeStyle;rounded=0;orthogonalLoop=1;jettySize=auto;html=1;exitX=1;exitY=0.5;exitDx=0;exitDy=0;" parent="1" source="qndtqw6j1YCROG0_cwLF-80" target="qndtqw6j1YCROG0_cwLF-80" edge="1">
          <mxGeometry relative="1" as="geometry" />
        </mxCell>
        <mxCell id="qndtqw6j1YCROG0_cwLF-96" value="" style="outlineConnect=0;fontColor=#232F3E;gradientColor=none;fillColor=#5A30B5;strokeColor=none;dashed=0;verticalLabelPosition=bottom;verticalAlign=top;align=center;html=1;fontSize=12;fontStyle=0;aspect=fixed;pointerEvents=1;shape=mxgraph.aws4.nat_gateway;" parent="1" vertex="1">
          <mxGeometry x="297" y="362" width="30" height="30" as="geometry" />
        </mxCell>
        <mxCell id="qndtqw6j1YCROG0_cwLF-97" value="" style="outlineConnect=0;fontColor=#232F3E;gradientColor=none;fillColor=#D86613;strokeColor=none;dashed=0;verticalLabelPosition=bottom;verticalAlign=top;align=center;html=1;fontSize=12;fontStyle=0;aspect=fixed;pointerEvents=1;shape=mxgraph.aws4.instances;" parent="1" vertex="1">
          <mxGeometry x="331" y="491" width="48" height="48" as="geometry" />
        </mxCell>
        <mxCell id="qndtqw6j1YCROG0_cwLF-98" value="wjcloud Server" style="text;html=1;strokeColor=none;fillColor=none;align=center;verticalAlign=middle;whiteSpace=wrap;rounded=0;" parent="1" vertex="1">
          <mxGeometry x="117" y="540" width="135" height="20" as="geometry" />
        </mxCell>
        <mxCell id="qndtqw6j1YCROG0_cwLF-99" value="wjcloud Server" style="text;html=1;strokeColor=none;fillColor=none;align=center;verticalAlign=middle;whiteSpace=wrap;rounded=0;" parent="1" vertex="1">
          <mxGeometry x="284" y="540" width="135" height="20" as="geometry" />
        </mxCell>
        <mxCell id="qndtqw6j1YCROG0_cwLF-100" value="50.51.42.0/24" style="text;html=1;strokeColor=none;fillColor=none;align=center;verticalAlign=middle;whiteSpace=wrap;rounded=0;" parent="1" vertex="1">
          <mxGeometry x="589" y="650" width="135" height="20" as="geometry" />
        </mxCell>
        <mxCell id="qndtqw6j1YCROG0_cwLF-101" value="50.50.42.0/24" style="text;html=1;strokeColor=none;fillColor=none;align=center;verticalAlign=middle;whiteSpace=wrap;rounded=0;" parent="1" vertex="1">
          <mxGeometry x="81.25" y="648" width="135" height="24" as="geometry" />
        </mxCell>
        <mxCell id="qndtqw6j1YCROG0_cwLF-102" value="서울 Region" style="text;html=1;strokeColor=none;fillColor=none;align=center;verticalAlign=middle;whiteSpace=wrap;rounded=0;" parent="1" vertex="1">
          <mxGeometry x="198.5" y="100" width="135" height="20" as="geometry" />
        </mxCell>
        <mxCell id="qndtqw6j1YCROG0_cwLF-103" value="서울 Region" style="text;html=1;strokeColor=none;fillColor=none;align=center;verticalAlign=middle;whiteSpace=wrap;rounded=0;" parent="1" vertex="1">
          <mxGeometry x="707.5" y="100" width="135" height="20" as="geometry" />
        </mxCell>
        <mxCell id="qndtqw6j1YCROG0_cwLF-190" style="edgeStyle=orthogonalEdgeStyle;rounded=0;orthogonalLoop=1;jettySize=auto;html=1;exitX=1;exitY=0.5;exitDx=0;exitDy=0;" parent="1" edge="1">
          <mxGeometry relative="1" as="geometry">
            <mxPoint x="125.25" y="540" as="sourcePoint" />
            <mxPoint x="125.25" y="540" as="targetPoint" />
          </mxGeometry>
        </mxCell>
        <mxCell id="qndtqw6j1YCROG0_cwLF-204" value="OpenSwan site-to-site vpn" style="text;html=1;strokeColor=none;fillColor=none;align=center;verticalAlign=middle;whiteSpace=wrap;rounded=0;" parent="1" vertex="1">
          <mxGeometry x="282" y="940" width="161" height="20" as="geometry" />
        </mxCell>
        <mxCell id="7y79K5_HygVIXR41Pf-r-10" style="edgeStyle=orthogonalEdgeStyle;rounded=0;orthogonalLoop=1;jettySize=auto;html=1;exitX=1;exitY=0.5;exitDx=0;exitDy=0;exitPerimeter=0;" edge="1" parent="1" source="7y79K5_HygVIXR41Pf-r-4">
          <mxGeometry relative="1" as="geometry">
            <mxPoint x="599" y="464.5" as="targetPoint" />
            <mxPoint x="549" y="464.5" as="sourcePoint" />
          </mxGeometry>
        </mxCell>
        <mxCell id="7y79K5_HygVIXR41Pf-r-11" style="edgeStyle=orthogonalEdgeStyle;rounded=0;orthogonalLoop=1;jettySize=auto;html=1;exitX=0;exitY=0.5;exitDx=0;exitDy=0;exitPerimeter=0;" edge="1" parent="1" source="7y79K5_HygVIXR41Pf-r-4">
          <mxGeometry relative="1" as="geometry">
            <mxPoint x="440" y="464.66666666666674" as="targetPoint" />
            <mxPoint x="490" y="464.5" as="sourcePoint" />
            <Array as="points" />
          </mxGeometry>
        </mxCell>
        <mxCell id="7y79K5_HygVIXR41Pf-r-4" value="" style="outlineConnect=0;dashed=0;verticalLabelPosition=bottom;verticalAlign=top;align=center;html=1;shape=mxgraph.aws3.vpc_peering;fillColor=#F58536;gradientColor=none;" vertex="1" parent="1">
          <mxGeometry x="500" y="444.5" width="40" height="40" as="geometry" />
        </mxCell>
        <mxCell id="7y79K5_HygVIXR41Pf-r-8" value="VPC Peering&amp;nbsp;" style="text;html=1;strokeColor=none;fillColor=none;align=center;verticalAlign=middle;whiteSpace=wrap;rounded=0;" vertex="1" parent="1">
          <mxGeometry x="462" y="489" width="135" height="20" as="geometry" />
        </mxCell>
        <mxCell id="7y79K5_HygVIXR41Pf-r-33" style="edgeStyle=orthogonalEdgeStyle;rounded=0;orthogonalLoop=1;jettySize=auto;html=1;entryX=0.5;entryY=1;entryDx=0;entryDy=0;" edge="1" parent="1" source="7y79K5_HygVIXR41Pf-r-17" target="qndtqw6j1YCROG0_cwLF-44">
          <mxGeometry relative="1" as="geometry" />
        </mxCell>
        <mxCell id="7y79K5_HygVIXR41Pf-r-17" value="" style="outlineConnect=0;fontColor=#232F3E;gradientColor=none;fillColor=#5A30B5;strokeColor=none;dashed=0;verticalLabelPosition=bottom;verticalAlign=top;align=center;html=1;fontSize=12;fontStyle=0;aspect=fixed;pointerEvents=1;shape=mxgraph.aws4.vpn_connection;" vertex="1" parent="1">
          <mxGeometry x="757.0500000000002" y="940" width="35.89" height="40" as="geometry" />
        </mxCell>
        <mxCell id="7y79K5_HygVIXR41Pf-r-27" style="edgeStyle=orthogonalEdgeStyle;rounded=0;orthogonalLoop=1;jettySize=auto;html=1;exitX=0;exitY=0.75;exitDx=0;exitDy=0;" edge="1" parent="1" source="7y79K5_HygVIXR41Pf-r-18">
          <mxGeometry relative="1" as="geometry">
            <mxPoint x="290" y="970" as="targetPoint" />
          </mxGeometry>
        </mxCell>
        <mxCell id="7y79K5_HygVIXR41Pf-r-28" style="edgeStyle=orthogonalEdgeStyle;rounded=0;orthogonalLoop=1;jettySize=auto;html=1;exitX=1;exitY=0.75;exitDx=0;exitDy=0;" edge="1" parent="1" source="7y79K5_HygVIXR41Pf-r-18">
          <mxGeometry relative="1" as="geometry">
            <mxPoint x="750" y="970" as="targetPoint" />
          </mxGeometry>
        </mxCell>
        <mxCell id="7y79K5_HygVIXR41Pf-r-18" value="&lt;font color=&quot;#000000&quot;&gt;VPC&lt;/font&gt;" style="points=[[0,0],[0.25,0],[0.5,0],[0.75,0],[1,0],[1,0.25],[1,0.5],[1,0.75],[1,1],[0.75,1],[0.5,1],[0.25,1],[0,1],[0,0.75],[0,0.5],[0,0.25]];outlineConnect=0;gradientColor=none;html=1;whiteSpace=wrap;fontSize=12;fontStyle=0;shape=mxgraph.aws4.group;grIcon=mxgraph.aws4.group_vpc;strokeColor=#248814;fillColor=none;verticalAlign=top;align=left;spacingLeft=30;fontColor=#AAB7B8;dashed=0;" vertex="1" parent="1">
          <mxGeometry x="435" y="805" width="171" height="220" as="geometry" />
        </mxCell>
        <mxCell id="7y79K5_HygVIXR41Pf-r-19" value="Public subnet" style="points=[[0,0],[0.25,0],[0.5,0],[0.75,0],[1,0],[1,0.25],[1,0.5],[1,0.75],[1,1],[0.75,1],[0.5,1],[0.25,1],[0,1],[0,0.75],[0,0.5],[0,0.25]];outlineConnect=0;gradientColor=none;html=1;whiteSpace=wrap;fontSize=12;fontStyle=0;shape=mxgraph.aws4.group;grIcon=mxgraph.aws4.group_security_group;grStroke=0;strokeColor=#248814;fillColor=#E9F3E6;verticalAlign=top;align=left;spacingLeft=30;fontColor=#248814;dashed=0;" vertex="1" parent="1">
          <mxGeometry x="443" y="860" width="153" height="152.5" as="geometry" />
        </mxCell>
        <mxCell id="7y79K5_HygVIXR41Pf-r-20" value="Public A Zone " style="fillColor=none;strokeColor=#147EBA;dashed=1;verticalAlign=top;fontStyle=0;fontColor=#147EBA;direction=south;" vertex="1" parent="1">
          <mxGeometry x="458.69" y="920" width="123.62" height="80" as="geometry" />
        </mxCell>
        <mxCell id="7y79K5_HygVIXR41Pf-r-21" value="50.54.10.0/24" style="text;html=1;strokeColor=none;fillColor=none;align=center;verticalAlign=middle;whiteSpace=wrap;rounded=0;" vertex="1" parent="1">
          <mxGeometry x="426" y="900" width="135" height="20" as="geometry" />
        </mxCell>
        <mxCell id="7y79K5_HygVIXR41Pf-r-22" value="" style="outlineConnect=0;fontColor=#232F3E;gradientColor=none;fillColor=#5A30B5;strokeColor=none;dashed=0;verticalLabelPosition=bottom;verticalAlign=top;align=center;html=1;fontSize=12;fontStyle=0;aspect=fixed;pointerEvents=1;shape=mxgraph.aws4.internet_gateway;" vertex="1" parent="1">
          <mxGeometry x="504.5" y="793" width="30" height="30" as="geometry" />
        </mxCell>
        <mxCell id="7y79K5_HygVIXR41Pf-r-23" value="서울 Region" style="text;html=1;strokeColor=none;fillColor=none;align=center;verticalAlign=middle;whiteSpace=wrap;rounded=0;" vertex="1" parent="1">
          <mxGeometry x="451.5" y="770" width="135" height="20" as="geometry" />
        </mxCell>
        <mxCell id="7y79K5_HygVIXR41Pf-r-24" value="" style="outlineConnect=0;fontColor=#232F3E;gradientColor=none;fillColor=#D86613;strokeColor=none;dashed=0;verticalLabelPosition=bottom;verticalAlign=top;align=center;html=1;fontSize=12;fontStyle=0;aspect=fixed;pointerEvents=1;shape=mxgraph.aws4.t2_instance;" vertex="1" parent="1">
          <mxGeometry x="475.5" y="952" width="36" height="36" as="geometry" />
        </mxCell>
        <mxCell id="7y79K5_HygVIXR41Pf-r-25" value="" style="outlineConnect=0;fontColor=#232F3E;gradientColor=none;fillColor=#D86613;strokeColor=none;dashed=0;verticalLabelPosition=bottom;verticalAlign=top;align=center;html=1;fontSize=12;fontStyle=0;aspect=fixed;pointerEvents=1;shape=mxgraph.aws4.t2_instance;" vertex="1" parent="1">
          <mxGeometry x="525" y="952" width="36" height="36" as="geometry" />
        </mxCell>
        <mxCell id="7y79K5_HygVIXR41Pf-r-34" value="OpenSwan site-to-site vpn" style="text;html=1;strokeColor=none;fillColor=none;align=center;verticalAlign=middle;whiteSpace=wrap;rounded=0;" vertex="1" parent="1">
          <mxGeometry x="600" y="940" width="161" height="20" as="geometry" />
        </mxCell>
        <mxCell id="7y79K5_HygVIXR41Pf-r-35" value="Auto Scaling group" style="points=[[0,0],[0.25,0],[0.5,0],[0.75,0],[1,0],[1,0.25],[1,0.5],[1,0.75],[1,1],[0.75,1],[0.5,1],[0.25,1],[0,1],[0,0.75],[0,0.5],[0,0.25]];outlineConnect=0;gradientColor=none;html=1;whiteSpace=wrap;fontSize=12;fontStyle=0;shape=mxgraph.aws4.groupCenter;grIcon=mxgraph.aws4.group_auto_scaling_group;grStroke=1;strokeColor=#D86613;fillColor=none;verticalAlign=top;align=center;fontColor=#D86613;dashed=1;spacingTop=25;" vertex="1" parent="1">
          <mxGeometry x="132" y="484.5" width="268" height="55.5" as="geometry" />
        </mxCell>
        <mxCell id="7y79K5_HygVIXR41Pf-r-36" value="Auto Scaling group" style="points=[[0,0],[0.25,0],[0.5,0],[0.75,0],[1,0],[1,0.25],[1,0.5],[1,0.75],[1,1],[0.75,1],[0.5,1],[0.25,1],[0,1],[0,0.75],[0,0.5],[0,0.25]];outlineConnect=0;gradientColor=none;html=1;whiteSpace=wrap;fontSize=12;fontStyle=0;shape=mxgraph.aws4.groupCenter;grIcon=mxgraph.aws4.group_auto_scaling_group;grStroke=1;strokeColor=#D86613;fillColor=none;verticalAlign=top;align=center;fontColor=#D86613;dashed=1;spacingTop=25;" vertex="1" parent="1">
          <mxGeometry x="642" y="487.25" width="268" height="55.5" as="geometry" />
        </mxCell>
        <mxCell id="7y79K5_HygVIXR41Pf-r-39" value="Private DB C Zone " style="fillColor=none;strokeColor=#147EBA;dashed=1;verticalAlign=top;fontStyle=0;fontColor=#147EBA;direction=south;" vertex="1" parent="1">
          <mxGeometry x="270.63" y="670" width="155" height="90" as="geometry" />
        </mxCell>
        <mxCell id="7y79K5_HygVIXR41Pf-r-40" value="50.50.43.0/24" style="text;html=1;strokeColor=none;fillColor=none;align=center;verticalAlign=middle;whiteSpace=wrap;rounded=0;" vertex="1" parent="1">
          <mxGeometry x="244" y="648" width="135" height="24" as="geometry" />
        </mxCell>
        <mxCell id="7y79K5_HygVIXR41Pf-r-41" value="" style="points=[[0,0,0],[0.25,0,0],[0.5,0,0],[0.75,0,0],[1,0,0],[0,1,0],[0.25,1,0],[0.5,1,0],[0.75,1,0],[1,1,0],[0,0.25,0],[0,0.5,0],[0,0.75,0],[1,0.25,0],[1,0.5,0],[1,0.75,0]];outlineConnect=0;fontColor=#232F3E;gradientColor=#4D72F3;gradientDirection=north;fillColor=#3334B9;strokeColor=#ffffff;dashed=0;verticalLabelPosition=bottom;verticalAlign=top;align=center;html=1;fontSize=12;fontStyle=0;aspect=fixed;shape=mxgraph.aws4.resourceIcon;resIcon=mxgraph.aws4.rds;" vertex="1" parent="1">
          <mxGeometry x="327" y="695" width="40" height="40" as="geometry" />
        </mxCell>
        <mxCell id="7y79K5_HygVIXR41Pf-r-42" value="Private DB C Zone " style="fillColor=none;strokeColor=#147EBA;dashed=1;verticalAlign=top;fontStyle=0;fontColor=#147EBA;direction=south;" vertex="1" parent="1">
          <mxGeometry x="778.63" y="670" width="155" height="90" as="geometry" />
        </mxCell>
        <mxCell id="7y79K5_HygVIXR41Pf-r-43" value="50.51.43.0/24" style="text;html=1;strokeColor=none;fillColor=none;align=center;verticalAlign=middle;whiteSpace=wrap;rounded=0;" vertex="1" parent="1">
          <mxGeometry x="753.63" y="648" width="135" height="24" as="geometry" />
        </mxCell>
        <mxCell id="7y79K5_HygVIXR41Pf-r-44" value="" style="points=[[0,0,0],[0.25,0,0],[0.5,0,0],[0.75,0,0],[1,0,0],[0,1,0],[0.25,1,0],[0.5,1,0],[0.75,1,0],[1,1,0],[0,0.25,0],[0,0.5,0],[0,0.75,0],[1,0.25,0],[1,0.5,0],[1,0.75,0]];outlineConnect=0;fontColor=#232F3E;gradientColor=#4D72F3;gradientDirection=north;fillColor=#3334B9;strokeColor=#ffffff;dashed=0;verticalLabelPosition=bottom;verticalAlign=top;align=center;html=1;fontSize=12;fontStyle=0;aspect=fixed;shape=mxgraph.aws4.resourceIcon;resIcon=mxgraph.aws4.rds;" vertex="1" parent="1">
          <mxGeometry x="835" y="695" width="40" height="40" as="geometry" />
        </mxCell>
        <mxCell id="7y79K5_HygVIXR41Pf-r-47" value="50.54.0.0/16" style="text;html=1;strokeColor=none;fillColor=none;align=center;verticalAlign=middle;whiteSpace=wrap;rounded=0;" vertex="1" parent="1">
          <mxGeometry x="410" y="830" width="135" height="20" as="geometry" />
        </mxCell>
        <mxCell id="7y79K5_HygVIXR41Pf-r-48" value="Master DB" style="text;html=1;strokeColor=none;fillColor=none;align=center;verticalAlign=middle;whiteSpace=wrap;rounded=0;" vertex="1" parent="1">
          <mxGeometry x="115.25" y="740" width="135" height="20" as="geometry" />
        </mxCell>
        <mxCell id="7y79K5_HygVIXR41Pf-r-49" value="Read Replica" style="text;html=1;strokeColor=none;fillColor=none;align=center;verticalAlign=middle;whiteSpace=wrap;rounded=0;" vertex="1" parent="1">
          <mxGeometry x="280.63" y="740" width="135" height="20" as="geometry" />
        </mxCell>
        <mxCell id="7y79K5_HygVIXR41Pf-r-50" value="Master DB" style="text;html=1;strokeColor=none;fillColor=none;align=center;verticalAlign=middle;whiteSpace=wrap;rounded=0;" vertex="1" parent="1">
          <mxGeometry x="625" y="740" width="135" height="20" as="geometry" />
        </mxCell>
        <mxCell id="7y79K5_HygVIXR41Pf-r-51" value="Read Replica" style="text;html=1;strokeColor=none;fillColor=none;align=center;verticalAlign=middle;whiteSpace=wrap;rounded=0;" vertex="1" parent="1">
          <mxGeometry x="787.5" y="740" width="135" height="20" as="geometry" />
        </mxCell>
        <mxCell id="7y79K5_HygVIXR41Pf-r-52" value="" style="outlineConnect=0;dashed=0;verticalLabelPosition=bottom;verticalAlign=top;align=center;html=1;shape=mxgraph.aws3.efs;fillColor=#E05243;gradientColor=none;" vertex="1" parent="1">
          <mxGeometry x="248.94" y="585" width="36" height="45" as="geometry" />
        </mxCell>
        <mxCell id="7y79K5_HygVIXR41Pf-r-54" value="Amazon EFS" style="text;html=1;strokeColor=none;fillColor=none;align=center;verticalAlign=middle;whiteSpace=wrap;rounded=0;" vertex="1" parent="1">
          <mxGeometry x="225.69" y="628" width="80.63" height="20" as="geometry" />
        </mxCell>
        <mxCell id="7y79K5_HygVIXR41Pf-r-62" value="" style="edgeStyle=orthogonalEdgeStyle;html=1;endArrow=block;elbow=vertical;startArrow=block;startFill=1;endFill=1;rounded=0;exitX=0.5;exitY=1;exitDx=0;exitDy=0;" edge="1" parent="1" source="qndtqw6j1YCROG0_cwLF-98">
          <mxGeometry width="100" relative="1" as="geometry">
            <mxPoint x="141" y="610" as="sourcePoint" />
            <mxPoint x="241" y="610" as="targetPoint" />
            <Array as="points">
              <mxPoint x="185" y="610" />
            </Array>
          </mxGeometry>
        </mxCell>
        <mxCell id="7y79K5_HygVIXR41Pf-r-64" value="" style="edgeStyle=orthogonalEdgeStyle;html=1;endArrow=block;elbow=vertical;startArrow=block;startFill=1;endFill=1;rounded=0;entryX=0.5;entryY=1;entryDx=0;entryDy=0;" edge="1" parent="1" target="qndtqw6j1YCROG0_cwLF-99">
          <mxGeometry width="100" relative="1" as="geometry">
            <mxPoint x="290" y="610" as="sourcePoint" />
            <mxPoint x="384" y="610" as="targetPoint" />
            <Array as="points">
              <mxPoint x="352" y="610" />
            </Array>
          </mxGeometry>
        </mxCell>
        <mxCell id="7y79K5_HygVIXR41Pf-r-65" value="" style="outlineConnect=0;dashed=0;verticalLabelPosition=bottom;verticalAlign=top;align=center;html=1;shape=mxgraph.aws3.efs;fillColor=#E05243;gradientColor=none;" vertex="1" parent="1">
          <mxGeometry x="756.94" y="585" width="36" height="45" as="geometry" />
        </mxCell>
        <mxCell id="7y79K5_HygVIXR41Pf-r-66" value="Amazon EFS" style="text;html=1;strokeColor=none;fillColor=none;align=center;verticalAlign=middle;whiteSpace=wrap;rounded=0;" vertex="1" parent="1">
          <mxGeometry x="733.69" y="628" width="80.63" height="20" as="geometry" />
        </mxCell>
        <mxCell id="7y79K5_HygVIXR41Pf-r-67" value="" style="edgeStyle=orthogonalEdgeStyle;html=1;endArrow=block;elbow=vertical;startArrow=block;startFill=1;endFill=1;rounded=0;exitX=0.5;exitY=1;exitDx=0;exitDy=0;" edge="1" parent="1">
          <mxGeometry width="100" relative="1" as="geometry">
            <mxPoint x="692.5" y="560" as="sourcePoint" />
            <mxPoint x="749" y="610" as="targetPoint" />
            <Array as="points">
              <mxPoint x="693" y="610" />
            </Array>
          </mxGeometry>
        </mxCell>
        <mxCell id="7y79K5_HygVIXR41Pf-r-68" value="" style="edgeStyle=orthogonalEdgeStyle;html=1;endArrow=block;elbow=vertical;startArrow=block;startFill=1;endFill=1;rounded=0;entryX=0.5;entryY=1;entryDx=0;entryDy=0;" edge="1" parent="1">
          <mxGeometry width="100" relative="1" as="geometry">
            <mxPoint x="798" y="610" as="sourcePoint" />
            <mxPoint x="859.5" y="560" as="targetPoint" />
            <Array as="points">
              <mxPoint x="860" y="610" />
            </Array>
          </mxGeometry>
        </mxCell>
      </root>
    </mxGraphModel>
  </diagram>
</mxfile>
